Coordinates
version=1
nRows=6
nColumns=36
inDegrees=yes

Units are S.I. units (second, meters, Newtons, ...)
If the header above contains a line with 'inDegrees', this indicates whether rotational values are in degrees (yes) or radians (no).

endheader
time	pelvis_tilt	pelvis_list	pelvis_rotation	pelvis_tx	pelvis_ty	pelvis_tz	hip_flexion_r	hip_adduction_r	hip_rotation_r	knee_angle_r	knee_angle_r_beta	ankle_angle_r	subtalar_angle_r	mtp_angle_r	hip_flexion_l	hip_adduction_l	hip_rotation_l	knee_angle_l	knee_angle_l_beta	ankle_angle_l	subtalar_angle_l	mtp_angle_l	lumbar_extension	lumbar_bending	lumbar_rotation	arm_flex_r	arm_add_r	arm_rot_r	elbow_flex_r	pro_sup_r	arm_flex_l	arm_add_l	arm_rot_l	elbow_flex_l	pro_sup_l
      0.00000000	     -7.00329914	     -0.30437209	     -1.82570050	     -0.10519474	      1.23053702	     -0.07012178	      8.60554075	     -1.52612620	      7.54778502	      0.31824394	      0.00555440	      4.28717468	    -11.38947898	     -6.31881118	      2.08220080	     -1.18276564	      2.14026194	      1.48090622	      0.02584669	      8.44689781	     -4.02131164	     -6.31881118	      1.19755009	      0.79305917	     -0.86855736	     -0.03387115	    -13.16455218	     -0.87402274	     30.51434707	     94.17326064	      0.69996585	    -12.17152465	      3.55923146	     26.64190699	     93.63210757
      0.01666670	     -6.46246062	      0.99835434	     -2.12824904	     -0.11635858	      1.22664580	     -0.07393858	      7.73912716	     -3.46432269	      8.22129579	      0.36022643	      0.00628714	      6.23845830	     -8.75945342	     -6.89390179	      2.28021246	      0.31384798	      0.75500147	      2.50425327	      0.04370746	      6.22562493	     -4.13590436	     -6.89390179	     -0.28927384	     -0.45268141	     -0.21280994	      0.19250999	    -13.48547905	     -0.92054329	     31.92355797	     96.87076112	      1.09245171	    -12.41121892	      3.34683147	     28.37088832	     98.13138954
      0.03333330	     -3.95149877	      0.85080673	     -2.22672091	     -0.11139675	      1.23375813	     -0.06985740	      4.79628157	     -3.47126868	      7.96930912	      0.41678356	      0.00727425	      5.97652800	     -8.05759974	     -7.03811555	     -0.25526660	      0.19757974	     -0.14250839	      2.58012588	      0.04503169	      5.72600936	     -4.79072001	     -7.03811555	     -3.99368821	     -0.45292191	      0.05351740	      0.31164388	    -13.95912471	     -0.09373817	     32.90924946	     94.70206498	      2.64430569	    -12.53751023	      5.05973957	     28.08146740	     96.72234918
      0.05000000	     -2.07704349	      0.89171320	     -2.52960356	     -0.11396143	      1.23607540	     -0.06990593	      2.96573463	     -3.74660516	      7.58946102	      0.63350641	      0.01105677	      5.96765201	     -6.99555385	     -7.20848225	     -1.83494062	      0.40486218	     -0.82713564	      3.31543668	      0.05786529	      5.36455857	     -5.51584387	     -7.20848225	     -7.06986202	     -0.51003092	      0.55523812	      0.51495977	    -14.04935206	     -1.45769563	     34.23175326	     95.08040657	      3.38086951	    -12.49527314	      5.23205975	     28.41458960	     98.27270863
      0.06666670	     -1.00193061	      0.88157302	     -2.82142916	     -0.11630529	      1.23760572	     -0.06969438	      2.07813872	     -3.82054497	      7.90319900	      0.89073687	      0.01554629	      6.22800780	     -6.60161482	     -7.39763427	     -2.74535343	      0.48727617	     -0.68549328	      3.77538725	      0.06589294	      5.32596272	     -6.34022818	     -7.39763427	     -8.87906036	     -0.55411972	      0.75249387	      0.37227379	    -14.20579555	     -1.65906095	     34.77050317	     93.72598104	      3.84991339	    -12.58165901	      5.99842460	     28.26558658	     97.74916563
      0.08333330	     -0.51371937	      0.90877774	     -3.14793673	     -0.11725285	      1.23833423	     -0.06930984	      1.69045121	     -3.88953550	      8.14467575	      1.12341173	      0.01960723	      6.41253743	     -6.40782837	     -7.44872537	     -3.03996297	      0.55452775	     -0.74645505	      4.41207178	      0.07700518	      5.13956580	     -7.24971158	     -7.44872537	     -9.88646753	     -0.63391729	      0.60324497	      0.18786896	    -14.48611736	     -0.60151644	     34.90756634	     90.85793993	      3.86916975	    -12.95008213	      7.55802313	     28.42998571	     95.35644242
